<svg xmlns="http://www.w3.org/2000/svg" viewBox="0 0 64 64">
  <defs>
    <linearGradient id="g" x1="0" y1="0" x2="1" y2="1">
      <stop offset="0" stop-color="#7c3aed"/>
      <stop offset="1" stop-color="#4f46e5"/>
    </linearGradient>
  </defs>
  <rect width="64" height="64" rx="14" fill="url(#g)"/>
  <path d="M32 12c-8 0-14 5-14 12 0 4 2 8 6 10 1-3 3-6 8-6s7 3 8 6c4-2 6-6 6-10 0-7-6-12-14-12z" fill="#fff" opacity="0.95"/>
  <circle cx="32" cy="28" r="6" fill="#fff"/>
  <path d="M32 36c-6 0-9 3-9 8v6h18v-6c0-5-3-8-9-8z" fill="#fff" opacity="0.9"/>
</svg>
